<svg width="9" height="8" viewBox="0 0 9 8" fill="none" xmlns="http://www.w3.org/2000/svg">
<path d="M8.01706 2.31415C8.33748 2.07384 8.62586 1.78546 8.85016 1.44901C8.56178 1.57718 8.22534 1.67331 7.88889 1.70535C8.24136 1.49708 8.49769 1.17665 8.62586 0.776126C8.30544 0.96838 7.93696 1.11257 7.56847 1.19267C7.24805 0.856232 6.81548 0.663979 6.33485 0.663979C5.40562 0.663979 4.65263 1.41697 4.65263 2.34619C4.65263 2.47436 4.66865 2.60253 4.70069 2.7307C3.30686 2.65059 2.05721 1.97771 1.22412 0.96838C1.07993 1.2087 0.99982 1.49708 0.99982 1.8175C0.99982 2.39426 1.2882 2.90693 1.75281 3.21133C1.48045 3.19531 1.20809 3.13123 0.983799 3.00306V3.01908C0.983799 3.83616 1.56056 4.50904 2.32957 4.66925C2.2014 4.7013 2.04119 4.73334 1.897 4.73334C1.78485 4.73334 1.68873 4.71732 1.57658 4.7013C1.78485 5.37418 2.40968 5.85481 3.14665 5.87084C2.56989 6.31943 1.84894 6.59178 1.0639 6.59178C0.919715 6.59178 0.791546 6.57576 0.663377 6.55974C1.40035 7.04038 2.28151 7.31273 3.24277 7.31273C6.33485 7.31273 8.01706 4.76538 8.01706 2.53845C8.01706 2.45834 8.01706 2.39426 8.01706 2.31415Z" fill="#172048"/>
</svg>
