<svg width="8" height="8" viewBox="0 0 8 8" fill="none" xmlns="http://www.w3.org/2000/svg">
<path d="M7.15088 0.39162H0.982757C0.710399 0.39162 0.486103 0.631937 0.486103 0.920316V7.0564C0.486103 7.34478 0.710399 7.56907 0.982757 7.56907H7.15088C7.42324 7.56907 7.66355 7.34478 7.66355 7.0564V0.920316C7.66355 0.631937 7.42324 0.39162 7.15088 0.39162ZM2.64895 6.54372H1.59156V3.13123H2.64895V6.54372ZM2.12026 2.65059C1.76779 2.65059 1.49543 2.37824 1.49543 2.04179C1.49543 1.70535 1.76779 1.41697 2.12026 1.41697C2.4567 1.41697 2.72906 1.70535 2.72906 2.04179C2.72906 2.37824 2.4567 2.65059 2.12026 2.65059ZM6.6382 6.54372H5.56479V4.87753C5.56479 4.49302 5.56479 3.98035 5.02007 3.98035C4.45934 3.98035 4.37923 4.41292 4.37923 4.86151V6.54372H3.32184V3.13123H4.33117V3.59584H4.34719C4.49138 3.32348 4.84384 3.0351 5.35652 3.0351C6.42993 3.0351 6.6382 3.75605 6.6382 4.66925V6.54372Z" fill="#172048"/>
</svg>
