<svg width="9" height="8" viewBox="0 0 9 8" fill="none" xmlns="http://www.w3.org/2000/svg">
<path d="M4.46645 2.13792C3.4411 2.13792 2.62402 2.97102 2.62402 3.98035C2.62402 5.0057 3.4411 5.82277 4.46645 5.82277C5.47577 5.82277 6.30887 5.0057 6.30887 3.98035C6.30887 2.97102 5.47577 2.13792 4.46645 2.13792ZM4.46645 5.18193C3.80958 5.18193 3.26486 4.65323 3.26486 3.98035C3.26486 3.32348 3.79356 2.79478 4.46645 2.79478C5.12331 2.79478 5.65201 3.32348 5.65201 3.98035C5.65201 4.65323 5.12331 5.18193 4.46645 5.18193ZM6.80553 2.07384C6.80553 1.83352 6.61327 1.64127 6.37296 1.64127C6.13264 1.64127 5.94039 1.83352 5.94039 2.07384C5.94039 2.31415 6.13264 2.5064 6.37296 2.5064C6.61327 2.5064 6.80553 2.31415 6.80553 2.07384ZM8.02313 2.5064C7.99109 1.92965 7.86292 1.41697 7.44637 1.00042C7.02982 0.583873 6.51715 0.455704 5.94039 0.423662C5.34761 0.39162 3.56926 0.39162 2.97648 0.423662C2.39972 0.455704 1.90307 0.583873 1.4705 1.00042C1.05395 1.41697 0.925783 1.92965 0.893741 2.5064C0.861699 3.09919 0.861699 4.87753 0.893741 5.47031C0.925783 6.04707 1.05395 6.54372 1.4705 6.97629C1.90307 7.39284 2.39972 7.52101 2.97648 7.55305C3.56926 7.58509 5.34761 7.58509 5.94039 7.55305C6.51715 7.52101 7.02982 7.39284 7.44637 6.97629C7.86292 6.54372 7.99109 6.04707 8.02313 5.47031C8.05517 4.87753 8.05517 3.09919 8.02313 2.5064ZM7.25412 6.09513C7.14197 6.41555 6.88563 6.65587 6.58123 6.78404C6.1006 6.97629 4.97912 6.92823 4.46645 6.92823C3.93775 6.92823 2.81627 6.97629 2.35166 6.78404C2.03124 6.65587 1.79092 6.41555 1.66275 6.09513C1.4705 5.63052 1.51856 4.50904 1.51856 3.98035C1.51856 3.46767 1.4705 2.34619 1.66275 1.86556C1.79092 1.56116 2.03124 1.32084 2.35166 1.19267C2.81627 1.00042 3.93775 1.04849 4.46645 1.04849C4.97912 1.04849 6.1006 1.00042 6.58123 1.19267C6.88563 1.30482 7.12595 1.56116 7.25412 1.86556C7.44637 2.34619 7.39831 3.46767 7.39831 3.98035C7.39831 4.50904 7.44637 5.63052 7.25412 6.09513Z" fill="#172048"/>
</svg>
